<?xml version="1.0" encoding="utf-8"?>
<!DOCTYPE svg PUBLIC "-//W3C//DTD SVG 1.1//EN" "http://www.w3.org/Graphics/SVG/1.1/DTD/svg11.dtd">
<svg version="1.1" id="Layer_1" xmlns="http://www.w3.org/2000/svg" xmlns:xlink="http://www.w3.org/1999/xlink" x="0px" y="0px"
width="500px" height="500px" viewBox="0 0 800 800" enable-background="new 0 0 800 800" xml:space="preserve">
<rect     x="1"     y="580"     width="160"    height="160" />	     
<circle  r="100" cx="290" cy="660"/>
<path d="M 512,550 l -100,84  40,108  120,0  44,-108 z"/>
<path d="M 700,575 l -86,168 174,0 z"/>
<path d="
M424 256
c70.7 0 128-57.3 128-128
S494.7 0 424 0 296 57.3 296 128
s57.3 128 128 128z
m89.6 32h-16.7c-22.2 10.2-46.9 16-72.9 16
s-50.6-5.8-72.9-16h-16.7
C260.2 288 200 348.2 200 422.4
V464c0 26.5 21.5 48 48 48
h352
c26.5 0 48-21.5 48-48
v-41.6
c0-74.2-60.2-134.4-134.4-134.4z"/>

</svg>