<?xml version="1.0" encoding="utf-8"?>
<!DOCTYPE svg PUBLIC "-//W3C//DTD SVG 1.1//EN" "http://www.w3.org/Graphics/SVG/1.1/DTD/svg11.dtd">
<svg version="1.1" id="Layer_1" xmlns="http://www.w3.org/2000/svg" xmlns:xlink="http://www.w3.org/1999/xlink" x="0px" y="0px"
width="500px" height="500px" viewBox="0 0 800 800" enable-background="new 0 0 800 800" xml:space="preserve">
<rect     x="1"     y="580"     width="160"    height="160" />	     
<circle  r="100" cx="290" cy="660"/>
<path d="M 512,550 l -100,84  40,108  120,0  44,-108 z"/>
<path d="M 700,575 l -86,168 174,0 z"/>

<path d="M292 256
c61.9 0 112-50.1 112-112
S353.9 32 292 32 180 82.1 180 144
s50.1 112 112 112z
m76.8 32h-8.3c-20.8 10-43.9 16-68.5 16
s-47.6-6-68.5-16h-8.3
C151.6 288 100 339.6 100 403.2
V432
c0 26.5 21.5 48 48 48
h288
c26.5 0 48-21.5 48-48v-28.8
c0-63.6-51.6-115.2-115.2-115.2z
M580 256
c53 0 96-43 96-96
s-43-96-96-96-96 43-96 96 43 96 96 96z
m48 32
h-3.8
c-13.9 4.8-28.6 8-44.2 8
s-30.3-3.2-44.2-8
H532
c-20.4 0-39.2 5.9-55.7 15.4 24.4 26.3 39.7 61.2 39.7 99.8
v38.4c0 2.2-.5 4.3-.6 6.4
H692
c26.5 0 48-21.5 48-48 0-61.9-50.1-112-112-112z"/>

</svg>