<?xml version="1.0" encoding="utf-8"?>
<!DOCTYPE svg PUBLIC "-//W3C//DTD SVG 1.1//EN" "http://www.w3.org/Graphics/SVG/1.1/DTD/svg11.dtd">
<svg version="1.1" id="Layer_1" xmlns="http://www.w3.org/2000/svg" xmlns:xlink="http://www.w3.org/1999/xlink" x="0px" y="0px"
width="500px" height="500px" viewBox="0 0 800 800" enable-background="new 0 0 800 800" xml:space="preserve">
    
<rect     x="1"     y="580"     width="160"    height="160" />	     
<circle  r="100" cx="290" cy="660"/>
<path d="M 512,550 l -100,84  40,108  120,0  44,-108 z"/>
<path d="M 700,575 l -86,168 174,0 z"/>


<path d="
M146 224
c35.3 0 64-28.7 64-64
s-28.7-64-64-64-64 28.7-64 64 28.7 64 64 64z
m448 0
c35.3 0 64-28.7 64-64
s-28.7-64-64-64-64 28.7-64 64 28.7 64 64 64z
m32 32
h-64
c-17.6 0-33.5 7.1-45.1 18.6 40.3 22.1 68.9 62 75.1 109.4
h66c17.7 0 32-14.3 32-32
v-32
c0-35.3-28.7-64-64-64z
m-256 0c61.9 0 112-50.1 112-112
S431.9 32 370 32 258 82.1 258 144
s50.1 112 112 112z
m76.8 32
h-8.3
c-20.8 10-43.9 16-68.5 16
s-47.6-6-68.5-16
h-8.3
C229.6 288 178 339.6 178 403.2
V432
c0 26.5 21.5 48 48 48
h288
c26.5 0 48-21.5 48-48
v-28.8c0-63.6-51.6-115.2-115.2-115.2z
m-223.7-13.4
C211.5 263.1 195.6 256 178 256
H114
c-35.3 0-64 28.7-64 64
v32
c0 17.7 14.3 32 32 32
h65.9c6.3-47.4 34.9-87.3 75.2-109.4z"/>

</svg>