<?xml version="1.0" standalone="no"?>
<!DOCTYPE svg PUBLIC "-//W3C//DTD SVG 20010904//EN"
 "http://www.w3.org/TR/2001/REC-SVG-20010904/DTD/svg10.dtd">
<svg version="1.0" xmlns="http://www.w3.org/2000/svg"
 width="429.000000pt" height="440.000000pt" viewBox="0 0 429.000000 440.000000"
 preserveAspectRatio="xMidYMid meet">
<metadata>
Created by potrace 1.15, written by Peter Selinger 2001-2017
</metadata>
<g transform="translate(0.000000,440.000000) scale(0.100000,-0.100000)"
fill="#000000" stroke="none">
<path d="M1434 3920 c-13 -5 -43 -48 -74 -107 -188 -352 -519 -682 -846 -846
-80 -40 -93 -51 -106 -83 -27 -67 8 -145 95 -212 221 -170 526 -281 887 -321
80 -9 407 -17 503 -12 37 1 82 47 95 95 7 24 8 112 1 264 -13 316 -36 469
-106 682 -57 176 -169 385 -257 479 -54 58 -135 84 -192 61z"/>
<path d="M2670 3919 c-71 -28 -148 -127 -242 -310 -139 -268 -208 -613 -208
-1041 0 -115 3 -135 22 -169 33 -60 55 -64 288 -61 416 7 660 55 929 183 123
58 257 146 305 200 53 57 68 143 34 186 -5 7 -53 35 -106 63 -174 94 -286 176
-445 330 -169 163 -308 345 -394 517 -21 41 -48 84 -62 94 -26 21 -80 24 -121
8z"/>
<path d="M1630 2099 c-188 -6 -339 -18 -405 -33 -11 -2 -47 -10 -80 -16 -258
-53 -613 -225 -705 -343 -35 -44 -50 -105 -36 -147 9 -30 24 -42 101 -83 186
-100 310 -191 468 -346 180 -176 307 -344 403 -533 19 -37 43 -72 53 -78 28
-14 97 -12 129 4 112 59 285 362 352 617 49 187 70 341 79 603 14 373 22 366
-359 355z"/>
<path d="M2320 2099 c-17 -4 -40 -15 -51 -25 -44 -39 -49 -65 -49 -231 0 -236
26 -465 76 -658 51 -201 116 -354 207 -490 96 -144 147 -185 230 -185 56 0 75
18 127 121 79 157 194 311 352 470 180 181 314 281 538 400 115 62 82 183 -80
296 -185 128 -448 230 -700 272 -177 29 -568 47 -650 30z"/>
</g>
</svg>
