<?xml version="1.0" standalone="no"?>
<!DOCTYPE svg PUBLIC "-//W3C//DTD SVG 20010904//EN"
 "http://www.w3.org/TR/2001/REC-SVG-20010904/DTD/svg10.dtd">
<svg version="1.0" xmlns="http://www.w3.org/2000/svg"
 width="429.000000pt" height="440.000000pt" viewBox="0 0 429.000000 440.000000"
 preserveAspectRatio="xMidYMid meet">
<metadata>
Created by potrace 1.15, written by Peter Selinger 2001-2017
</metadata>
<g transform="translate(0.000000,440.000000) scale(0.100000,-0.100000)"
fill="#000000" stroke="none">
<path d="M290 4020 c-7 -13 -10 -164 -8 -471 4 -550 -12 -511 167 -428 155 72
273 159 436 323 106 106 170 181 217 251 83 125 141 246 142 300 l1 40 -472 3
c-463 2 -472 2 -483 -18z"/>
<path d="M1709 4024 c-16 -19 -6 -38 85 -166 55 -77 159 -268 199 -366 9 -24
28 -80 41 -125 42 -142 47 -150 83 -141 17 5 29 32 63 137 23 73 68 186 99
252 50 104 90 169 214 349 21 30 24 42 16 57 -9 18 -27 19 -398 19 -344 0
-390 -2 -402 -16z"/>
<path d="M2971 4026 c-38 -46 115 -320 281 -506 177 -197 401 -364 578 -430
58 -22 61 -22 80 -5 19 18 20 33 20 475 0 341 -3 459 -12 468 -9 9 -128 12
-474 12 -387 0 -463 -2 -473 -14z"/>
<path d="M1434 3920 c-13 -5 -43 -48 -74 -107 -188 -352 -519 -682 -846 -846
-80 -40 -93 -51 -106 -83 -27 -67 8 -145 95 -212 221 -170 526 -281 887 -321
80 -9 407 -17 503 -12 37 1 82 47 95 95 7 24 8 112 1 264 -13 316 -36 469
-106 682 -57 176 -169 385 -257 479 -54 58 -135 84 -192 61z"/>
<path d="M2670 3919 c-71 -28 -148 -127 -242 -310 -139 -268 -208 -613 -208
-1041 0 -115 3 -135 22 -169 33 -60 55 -64 288 -61 416 7 660 55 929 183 123
58 257 146 305 200 53 57 68 143 34 186 -5 7 -53 35 -106 63 -174 94 -286 176
-445 330 -169 163 -308 345 -394 517 -21 41 -48 84 -62 94 -26 21 -80 24 -121
8z"/>
<path d="M290 2601 c-6 -13 -10 -152 -10 -385 0 -351 1 -367 20 -386 24 -24
37 -20 114 37 170 126 309 198 519 267 146 49 162 56 165 78 4 33 -9 41 -103
69 -188 54 -381 148 -549 268 -103 73 -138 85 -156 52z"/>
<path d="M3755 2540 c-129 -93 -310 -185 -450 -230 -172 -55 -190 -64 -190
-90 0 -30 17 -39 170 -87 179 -55 342 -141 549 -288 55 -40 59 -41 80 -19 14
13 16 63 16 393 0 280 -3 380 -12 389 -23 23 -54 10 -163 -68z"/>
<path d="M1630 2099 c-188 -6 -339 -18 -405 -33 -11 -2 -47 -10 -80 -16 -258
-53 -613 -225 -705 -343 -35 -44 -50 -105 -36 -147 9 -30 24 -42 101 -83 186
-100 310 -191 468 -346 180 -176 307 -344 403 -533 19 -37 43 -72 53 -78 28
-14 97 -12 129 4 112 59 285 362 352 617 49 187 70 341 79 603 14 373 22 366
-359 355z"/>
<path d="M2320 2099 c-17 -4 -40 -15 -51 -25 -44 -39 -49 -65 -49 -231 0 -236
26 -465 76 -658 51 -201 116 -354 207 -490 96 -144 147 -185 230 -185 56 0 75
18 127 121 79 157 194 311 352 470 180 181 314 281 538 400 115 62 82 183 -80
296 -185 128 -448 230 -700 272 -177 29 -568 47 -650 30z"/>
<path d="M304 1355 c-18 -13 -19 -37 -22 -458 -2 -281 1 -454 7 -471 l11 -26
472 2 473 3 3 27 c5 39 -49 160 -118 267 -78 119 -105 154 -215 269 -174 182
-357 312 -531 378 -53 20 -64 21 -80 9z"/>
<path d="M3830 1348 c-275 -104 -615 -414 -782 -713 -69 -125 -84 -166 -80
-217 2 -17 32 -18 471 -18 384 0 471 2 480 14 8 9 10 141 9 471 -3 445 -4 458
-23 470 -17 11 -29 10 -75 -7z"/>
<path d="M2088 1208 c-9 -7 -31 -60 -48 -118 -69 -227 -138 -362 -310 -603
-61 -85 -74 -82 378 -85 383 -2 391 -2 402 18 9 17 4 29 -32 77 -143 191 -244
393 -309 613 -20 69 -42 110 -59 110 -3 0 -13 -6 -22 -12z"/>
</g>
</svg>
