<?xml version="1.0" encoding="UTF-8" standalone="no"?>
<!-- Generator: Adobe Illustrator 16.0.0, SVG Export Plug-In . SVG Version: 6.00 Build 0)  -->

<svg
   xmlns:dc="http://purl.org/dc/elements/1.1/"
   xmlns:cc="http://creativecommons.org/ns#"
   xmlns:rdf="http://www.w3.org/1999/02/22-rdf-syntax-ns#"
   xmlns:svg="http://www.w3.org/2000/svg"
   xmlns="http://www.w3.org/2000/svg"
   xmlns:sodipodi="http://sodipodi.sourceforge.net/DTD/sodipodi-0.dtd"
   xmlns:inkscape="http://www.inkscape.org/namespaces/inkscape"
   version="1.1"
   id="Layer_1"
   x="0px"
   y="0px"
   width="500"
   height="500"
   viewBox="0 0 500 500"
   enable-background="new 0 0 480 480"
   xml:space="preserve"
   inkscape:version="0.91 r13725"
   sodipodi:docname="333.svg"><metadata
     id="metadata40"><rdf:RDF><cc:Work
         rdf:about=""><dc:format>image/svg+xml</dc:format><dc:type
           rdf:resource="http://purl.org/dc/dcmitype/StillImage" /><dc:title></dc:title></cc:Work></rdf:RDF></metadata><defs
     id="defs38" /><sodipodi:namedview
     pagecolor="#ffffff"
     bordercolor="#666666"
     borderopacity="1"
     objecttolerance="10"
     gridtolerance="10"
     guidetolerance="10"
     inkscape:pageopacity="0"
     inkscape:pageshadow="2"
     inkscape:window-width="2560"
     inkscape:window-height="1413"
     id="namedview36"
     showgrid="false"
     inkscape:zoom="0.49166667"
     inkscape:cx="-130.16949"
     inkscape:cy="240"
     inkscape:window-x="0"
     inkscape:window-y="27"
     inkscape:window-maximized="0"
     inkscape:current-layer="Layer_1" />
     
     
<polygon points="10,250 250,10 490,250 250,490 " fill="black"/>
          
<line  x1="10" y1="250" x2="250" y2="10" stroke="white" stroke-width="10"  />
<line  x1="10" y1="250" x2="250" y2="490" stroke="white" stroke-width="10" />
<line  x1="490" y1="250" x2="250" y2="10" stroke="white" stroke-width="10"  />
<line  x1="490" y1="250" x2="250" y2="490" stroke="white" stroke-width="10" />

<line  x1="90" y1="250" x2="250" y2="90" stroke="white" stroke-width="10"  />
<line  x1="90" y1="250" x2="250" y2="410" stroke="white" stroke-width="10" />
<line  x1="410" y1="250" x2="250" y2="90" stroke="white" stroke-width="10"  />
<line  x1="410" y1="250" x2="250" y2="410" stroke="white" stroke-width="10" />

<line  x1="170" y1="250" x2="250" y2="170" stroke="white" stroke-width="10"  />
<line  x1="170" y1="250" x2="250" y2="330" stroke="white" stroke-width="10" />
<line  x1="330" y1="250" x2="250" y2="170" stroke="white" stroke-width="10"  />
<line  x1="330" y1="250" x2="250" y2="330" stroke="white" stroke-width="10" />


<line  x1="10" y1="250" x2="490" y2="250" stroke="white" stroke-width="10" />
<line  x1="250" y1="10" x2="250" y2="490" stroke="white" stroke-width="10"  />

<line  x1="170" y1="90" x2="330" y2="90" stroke="white" stroke-width="10"  />
<line  x1="90" y1="170" x2="410" y2="170" stroke="white" stroke-width="10"  />
<line  x1="90" y1="330" x2="410" y2="330" stroke="white" stroke-width="10"  />
<line  x1="170" y1="410" x2="330" y2="410" stroke="white" stroke-width="10"  />

<line  x1="90" y1="170" x2="90" y2="330" stroke="white" stroke-width="10"  />
<line  x1="170" y1="90" x2="170" y2="410" stroke="white" stroke-width="10"  />
<line  x1="330" y1="90" x2="330" y2="410" stroke="white" stroke-width="10"  />
<line  x1="410" y1="170" x2="410" y2="330" stroke="white" stroke-width="10"  />

</svg>