<?xml version="1.0" encoding="UTF-8" standalone="no"?>
<!-- Generator: Adobe Illustrator 16.0.0, SVG Export Plug-In . SVG Version: 6.00 Build 0)  -->
<svg	xmlns:dc="http://purl.org/dc/elements/1.1/"	xmlns:cc="http://creativecommons.org/ns#"	xmlns:rdf="http://www.w3.org/1999/02/22-rdf-syntax-ns#"	xmlns:svg="http://www.w3.org/2000/svg"	xmlns="http://www.w3.org/2000/svg"	xmlns:sodipodi="http://sodipodi.sourceforge.net/DTD/sodipodi-0.dtd"	xmlns:inkscape="http://www.inkscape.org/namespaces/inkscape"	version="1.1"	id="Layer_1"	x="0px"	y="0px"	width="500"	height="500"	viewBox="0 0 500 500"	enable-background="new 0 0 480 480"	xml:space="preserve"	inkscape:version="0.91 r13725"	sodipodi:docname="666.svg">
	<metadata	id="metadata215">
		<rdf:RDF>
			<cc:Work	rdf:about="">
				<dc:format>image/svg+xml</dc:format>
				<dc:type	rdf:resource="http://purl.org/dc/dcmitype/StillImage" />
				<dc:title/>
			</cc:Work>
		</rdf:RDF>
	</metadata>

        <!--<path	d="M 50 50 L 50 450 450 450 450 50 Z"	fill="none"  stroke="black" stroke-width="20"  />	-->
	
        
	<rect	x="101.69347"	y="99.869972"	width="55.983826"	height="55.983826"	id="rect145"	style="fill:#000000" />

	
	<rect	x="182.44797"	y="100.11575"	width="55.982662"	height="55.982662"	id="rect151"	style="fill:#000000" />
	<rect	x="262.2869"	y="100.11575"	width="55.98732"	height="55.983826"	id="rect153"	style="fill:#000000" />
	
	<rect	x="101.69347"	y="181.45615"	width="55.983826"	height="55.986153"	id="rect157"	style="fill:#000000" />
	
	<rect	x="101.69347"	y="262.80118"	width="55.983826"	height="55.982662"	id="rect161"	style="fill:#000000" />
	<rect	x="182.44797"	y="181.45615"	width="55.982662"	height="55.984989"	id="rect163"	style="fill:#000000" />
	<rect	x="262.2869"	y="181.45497"	width="55.98732"	height="55.98732"	id="rect165"	style="fill:#000000" />
	<rect	x="182.44797"	y="262.7977"	width="55.982662"	height="55.984989"	id="rect167"	style="fill:#000000" />
	<rect	x="262.2869"	y="262.80005"	width="55.98732"	height="55.982662"	id="rect169"	style="fill:#000000" />
	
	<rect	x="341.47586"	y="100.11692"	width="55.984989"	height="55.983826"	id="rect173"	style="fill:#000000" />
	<rect	x="341.47586"	y="181.45615"	width="55.984989"	height="55.986153"	id="rect175"	style="fill:#000000" />
	<rect	x="341.47586"	y="262.80118"	width="55.984989"	height="55.982662"	id="rect177"	style="fill:#000000" />
	
	<rect	x="101.82161"	y="344.14273"	width="55.983826"	height="55.983826"	id="rect181"	style="fill:#000000" />
	<rect	x="182.57726"	y="344.14273"	width="55.983826"	height="55.983826"	id="rect183"	style="fill:#000000" />
	<rect	x="262.4162"	y="344.14154"	width="55.98732"	height="55.983826"	id="rect185"	style="fill:#000000" />
	

</svg>